<?xml version="1.0" encoding="us-ascii" standalone="no"?><svg xmlns="http://www.w3.org/2000/svg" xmlns:xlink="http://www.w3.org/1999/xlink" contentStyleType="text/css" height="242px" preserveAspectRatio="none" style="width:297px;height:242px;background:#FFFFFF;" version="1.1" viewBox="0 0 297 242" width="297px" zoomAndPan="magnify"><defs/><g><g id="elem_Relocation"><rect fill="#FFC0CB" height="36.4883" style="stroke:#181818;stroke-width:0.5;" width="86" x="7" y="103.48"/><text fill="#000000" font-family="sans-serif" font-size="14" lengthAdjust="spacing" textLength="72" x="14" y="119.0152">Relocation</text><line style="stroke:#181818;stroke-width:0.5;" x1="8" x2="92" y1="123.9683" y2="123.9683"/></g><g id="elem_Symbol"><rect fill="#FFC0CB" height="36.4883" style="stroke:#181818;stroke-width:0.5;" width="64" x="128" y="103.48"/><text fill="#000000" font-family="sans-serif" font-size="14" lengthAdjust="spacing" textLength="50" x="135" y="119.0152">Symbol</text><line style="stroke:#181818;stroke-width:0.5;" x1="129" x2="191" y1="123.9683" y2="123.9683"/></g><g id="elem_Section"><rect fill="#FFC0CB" height="36.4883" style="stroke:#181818;stroke-width:0.5;" width="64" x="227" y="103.48"/><text fill="#000000" font-family="sans-serif" font-size="14" lengthAdjust="spacing" textLength="50" x="234" y="119.0152">Section</text><line style="stroke:#181818;stroke-width:0.5;" x1="228" x2="290" y1="123.9683" y2="123.9683"/></g><g id="elem_Compiler"><rect fill="#F1F1F1" height="36.4883" style="stroke:#181818;stroke-width:0.5;" width="77" x="121.5" y="7"/><text fill="#000000" font-family="sans-serif" font-size="14" lengthAdjust="spacing" textLength="63" x="128.5" y="22.5352">Compiler</text><line style="stroke:#181818;stroke-width:0.5;" x1="122.5" x2="197.5" y1="27.4883" y2="27.4883"/></g><g id="elem_Linker"><rect fill="#F1F1F1" height="36.4883" style="stroke:#181818;stroke-width:0.5;" width="56" x="132" y="199.97"/><text fill="#000000" font-family="sans-serif" font-size="14" lengthAdjust="spacing" textLength="42" x="139" y="215.5052">Linker</text><line style="stroke:#181818;stroke-width:0.5;" x1="133" x2="187" y1="220.4583" y2="220.4583"/></g><!--link Compiler to Relocation--><g id="link_Compiler_Relocation"><path codeLine="7" d="M139.57,43.79 C119.81,60.76 94.5913,82.4203 74.8713,99.3603 " fill="none" id="Compiler-to-Relocation" style="stroke:#181818;stroke-width:1.0;"/><polygon fill="#181818" points="70.32,103.27,79.7534,100.4397,74.1128,100.0119,74.5405,94.3713,70.32,103.27" style="stroke:#181818;stroke-width:1.0;"/></g><!--link Compiler to Symbol--><g id="link_Compiler_Symbol"><path codeLine="8" d="M160,43.57 C160,60.51 160,80.17 160,97.19 " fill="none" id="Compiler-to-Symbol" style="stroke:#181818;stroke-width:1.0;"/><polygon fill="#181818" points="160,103.19,164,94.19,160,98.19,156,94.19,160,103.19" style="stroke:#181818;stroke-width:1.0;"/></g><!--link Compiler to Section--><g id="link_Compiler_Section"><path codeLine="9" d="M178.16,43.57 C195.91,60.51 218.4611,82.0259 236.2811,99.0459 " fill="none" id="Compiler-to-Section" style="stroke:#181818;stroke-width:1.0;"/><polygon fill="#181818" points="240.62,103.19,236.8744,94.0812,237.0042,99.7366,231.3489,99.8664,240.62,103.19" style="stroke:#181818;stroke-width:1.0;"/></g><!--link Relocation to Linker--><g id="link_Relocation_Linker"><path codeLine="11" d="M70.43,140.28 C90.19,157.25 115.4087,178.9103 135.1287,195.8503 " fill="none" id="Relocation-to-Linker" style="stroke:#181818;stroke-width:1.0;"/><polygon fill="#181818" points="139.68,199.76,135.4595,190.8613,135.8872,196.5019,130.2466,196.9297,139.68,199.76" style="stroke:#181818;stroke-width:1.0;"/></g><!--link Symbol to Linker--><g id="link_Symbol_Linker"><path codeLine="12" d="M160,140.06 C160,157 160,176.66 160,193.68 " fill="none" id="Symbol-to-Linker" style="stroke:#181818;stroke-width:1.0;"/><polygon fill="#181818" points="160,199.68,164,190.68,160,194.68,156,190.68,160,199.68" style="stroke:#181818;stroke-width:1.0;"/></g><!--link Section to Linker--><g id="link_Section_Linker"><path codeLine="13" d="M236.4995,144.2024 C218.7495,161.1424 200.5389,178.5159 182.7189,195.5359 " fill="none" id="Section-Linker" style="stroke:#181818;stroke-width:1.0;"/><polygon fill="#181818" points="240.84,140.06,231.5676,143.38,237.2229,143.512,237.0908,149.1674,240.84,140.06" style="stroke:#181818;stroke-width:1.0;"/><polygon fill="#181818" points="178.38,199.68,187.6511,196.3564,181.9958,196.2266,182.1256,190.5712,178.38,199.68" style="stroke:#181818;stroke-width:1.0;"/></g><!--SRC=[KypCIyufJKbLo4_AIaqkATOhA5M4Chcu80m5v_pSWioSr28OtoSpBnl8uuA9A-ZgsYa4fURa9oUMPERdeOe7L-OcvUUWYG5D0IdaGcW2YqCDXcX14O5eKB114WC0]--></g></svg>